<svg xmlns="http://www.w3.org/2000/svg" viewBox="0 0 1280 720" role="img" aria-label="王宫政变">
  <defs>
    <linearGradient id="sky" x1="0" y1="0" x2="1" y2="1">
      <stop offset="0" stop-color="#241923"/>
      <stop offset="0.55" stop-color="#10131f"/>
      <stop offset="1" stop-color="#05070d"/>
    </linearGradient>
    <radialGradient id="halo" cx="50%" cy="38%" r="48%">
      <stop offset="0" stop-color="#f7c873" stop-opacity="0.55"/>
      <stop offset="0.45" stop-color="#b83f5d" stop-opacity="0.18"/>
      <stop offset="1" stop-color="#000" stop-opacity="0"/>
    </radialGradient>
    <filter id="soft"><feGaussianBlur stdDeviation="14"/></filter>
  </defs>
  <rect width="1280" height="720" fill="url(#sky)"/>
  <circle cx="816" cy="118" r="150" fill="url(#halo)"/>
  <circle cx="816" cy="118" r="46" fill="#fff2cc" opacity="0.9"/>
  <g opacity="0.35" stroke="#f7c873" stroke-width="2">
    <path d="M130 180 H1150"/><path d="M90 270 H1210"/><path d="M170 360 H1110"/>
    <path d="M240 90 V610"/><path d="M480 70 V650"/><path d="M720 90 V630"/><path d="M960 70 V650"/>
  </g>
  <path d="M0 640 C300 570 500 610 710 555 C900 500 1080 605 1280 565 L1280 720 L0 720 Z" fill="#070912"/>
  <g fill="#0b1020">
    <rect x="624" y="210" width="82" height="370" rx="8"/>
    <path d="M604 210 L665 130 L726 210 Z"/>
    <rect x="652" y="280" width="26" height="120" rx="13" fill="#b83f5d" opacity="0.44"/>
  </g>
  <g transform="translate(700 390)" opacity="0.92">
    <path d="M0 190 C32 70 76 10 132 0 C190 12 226 78 250 190 Z" fill="#080b13"/>
    <path d="M102 20 L74 -26 L136 5 L190 -24 L166 28" fill="#080b13"/>
    <circle cx="114" cy="60" r="5" fill="#f7c873"/><circle cx="154" cy="60" r="5" fill="#f7c873"/>
  </g>
  <g transform="translate(160 510)">
    <rect x="0" y="0" width="520" height="96" rx="10" fill="#05070d" opacity="0.58"/>
    <text x="28" y="42" fill="#fff2cc" font-size="28" font-family="'Songti SC','Noto Serif CJK SC',serif" letter-spacing="2">CG 33</text>
    <text x="28" y="78" fill="#f7c873" font-size="34" font-family="'Songti SC','Noto Serif CJK SC',serif" font-weight="700">王宫政变</text>
  </g>
  <path d="M80 650 C360 615 560 695 830 640 C1030 598 1130 640 1210 610" fill="none" stroke="#b83f5d" stroke-width="3" opacity="0.7" filter="url(#soft)"/>
</svg>
